<svg width="25" height="25" viewBox="0 0 25 25" fill="none" xmlns="http://www.w3.org/2000/svg">
<path d="M21.6397 15.6543L17.0264 13.5869C16.8174 13.4974 16.5893 13.4613 16.3628 13.4821C16.1364 13.503 15.9187 13.5799 15.7295 13.7061C15.7103 13.7184 15.6921 13.7321 15.6748 13.7471L13.2637 15.7979C13.2387 15.8115 13.2108 15.8191 13.1823 15.8201C13.1539 15.8212 13.1255 15.8155 13.0996 15.8037C11.5498 15.0557 9.94435 13.46 9.19337 11.9316C9.18086 11.9061 9.17436 11.878 9.17436 11.8496C9.17436 11.8212 9.18086 11.7931 9.19337 11.7676L11.251 9.32617C11.2658 9.30813 11.2795 9.28921 11.292 9.26953C11.4164 9.0796 11.4915 8.86167 11.5106 8.63542C11.5297 8.40918 11.4922 8.18174 11.4014 7.97364L9.34864 3.36817C9.23207 3.0963 9.03047 2.86958 8.77409 2.72202C8.51772 2.57446 8.2204 2.51404 7.92677 2.54981C6.65062 2.71758 5.47922 3.34428 4.63148 4.3128C3.78373 5.28131 3.31765 6.52538 3.32032 7.8125C3.32032 15.459 9.54103 21.6797 17.1875 21.6797C18.4746 21.6822 19.7185 21.216 20.687 20.3683C21.6555 19.5206 22.2822 18.3493 22.4502 17.0732C22.4859 16.781 22.4263 16.485 22.2803 16.2293C22.1342 15.9737 21.9095 15.772 21.6397 15.6543ZM17.1875 20.5078C10.1875 20.5078 4.4922 14.8125 4.4922 7.8125C4.48893 6.81048 4.8506 5.84155 5.50963 5.08673C6.16865 4.33192 7.07995 3.84286 8.07325 3.71094H8.09571C8.13507 3.71167 8.17328 3.72428 8.20535 3.74711C8.23741 3.76994 8.26183 3.80192 8.2754 3.83887L10.3359 8.43946C10.3477 8.46503 10.3538 8.49285 10.3538 8.521C10.3538 8.54915 10.3477 8.57696 10.3359 8.60254L8.27443 11.0498C8.25912 11.0673 8.24509 11.0859 8.23243 11.1055C8.10343 11.3024 8.02747 11.5293 8.0119 11.7642C7.99633 11.9991 8.04169 12.2341 8.14357 12.4463C9.00978 14.2197 10.7969 15.9932 12.5899 16.8594C12.8033 16.9607 13.0394 17.005 13.2751 16.9878C13.5108 16.9707 13.738 16.8928 13.9346 16.7617C13.9531 16.749 13.9717 16.7354 13.9893 16.7207L16.3994 14.6699C16.4232 14.6571 16.4495 14.6496 16.4765 14.648C16.5035 14.6463 16.5305 14.6504 16.5557 14.6602L21.1699 16.7275C21.2076 16.7436 21.2393 16.7711 21.2605 16.8061C21.2817 16.8412 21.2914 16.882 21.2881 16.9229C21.1569 17.9166 20.6683 18.8286 19.9136 19.4884C19.159 20.1481 18.1899 20.5105 17.1875 20.5078Z" fill="white"/>
</svg>
