<svg width="35" height="35" xmlns="http://www.w3.org/2000/svg"><path d="M17.494 4A13.437 13.437 0 0131 17.507 13.464 13.464 0 0117.462 31C9.987 30.98 3.986 24.922 4 17.414 4.014 10.004 10.046 4.008 17.494 4zm-.387 14.744l-.207.01c-2.356.22-4.628.72-6.502 2.274-1.171.97-1.196 1.716-.245 2.838 3.657 4.32 10.461 4.464 14.432.303 1.344-1.41 1.292-2.288-.33-3.431-2.007-1.415-4.318-1.897-6.73-1.987-.209 0-.419-.017-.625.002zm.329-10.693c-2.178.035-3.967 1.839-3.98 4.014-.012 2.228 1.826 4.063 4.061 4.056a4.005 4.005 0 004.02-4.075 4.014 4.014 0 00-4.101-3.995z" fill-rule="evenodd"/></svg>